<svg xmlns="http://www.w3.org/2000/svg" viewBox="0 0 1200 800" width="1200" height="800" role="img">
<defs>
<linearGradient id="sky3" x1="0" y1="0" x2="0" y2="1"><stop offset="0" stop-color="#E4E7DC"/><stop offset="1" stop-color="#FDFDF8"/></linearGradient>
<linearGradient id="wl3" x1="0" y1="0" x2="0" y2="1"><stop offset="0" stop-color="#FFFDF7"/><stop offset="1" stop-color="#EFEADD"/></linearGradient>
<linearGradient id="fl3" x1="0" y1="0" x2="0" y2="1"><stop offset="0" stop-color="#DFD3B9"/><stop offset="1" stop-color="#C6B795"/></linearGradient>
<linearGradient id="gl3" x1="0" y1="0" x2="1" y2="1"><stop offset="0" stop-color="#E1E8E4"/><stop offset="1" stop-color="#FDFDF8"/></linearGradient>
</defs>
<rect width="1200" height="800" fill="url(#wl3)"/>
<rect y="600" width="1200" height="200" fill="url(#fl3)"/>
<rect y="586" width="1200" height="14" fill="#EFEADD"/>
<rect y="584" width="1200" height="3" fill="#55584C" opacity=".25"/>
<!-- splashback tiles -->
<rect x="0" y="300" width="1200" height="170" fill="#FDFDF8"/>
<g stroke="#55584C" stroke-opacity=".12" stroke-width="3">
<line x1="0" y1="300" x2="0" y2="470"/><line x1="140" y1="300" x2="140" y2="470"/><line x1="280" y1="300" x2="280" y2="470"/><line x1="420" y1="300" x2="420" y2="470"/><line x1="560" y1="300" x2="560" y2="470"/><line x1="700" y1="300" x2="700" y2="470"/><line x1="840" y1="300" x2="840" y2="470"/><line x1="980" y1="300" x2="980" y2="470"/><line x1="1120" y1="300" x2="1120" y2="470"/>
<line x1="0" y1="385" x2="1200" y2="385"/>
</g>
<!-- upper cabinets -->
<rect x="40" y="120" width="440" height="170" rx="6" fill="#EFEADD" stroke="#55584C" stroke-opacity=".2" stroke-width="3"/>
<line x1="260" y1="120" x2="260" y2="290" stroke="#55584C" stroke-opacity=".2" stroke-width="3"/>
<rect x="150" y="196" width="80" height="8" rx="4" fill="#55584C"/>
<rect x="290" y="196" width="80" height="8" rx="4" fill="#55584C"/>
<rect x="720" y="120" width="440" height="170" rx="6" fill="#EFEADD" stroke="#55584C" stroke-opacity=".2" stroke-width="3"/>
<line x1="940" y1="120" x2="940" y2="290" stroke="#55584C" stroke-opacity=".2" stroke-width="3"/>
<rect x="830" y="196" width="80" height="8" rx="4" fill="#55584C"/>
<rect x="970" y="196" width="80" height="8" rx="4" fill="#55584C"/>
<!-- extractor -->
<path d="M520 120 L680 120 L640 230 L560 230 Z" fill="#55584C" opacity=".75"/>
<!-- worktop + base units -->
<rect x="0" y="470" width="1200" height="26" fill="#55584C"/>
<rect x="0" y="496" width="1200" height="120" fill="#C4B69A"/>
<g stroke="#55584C" stroke-opacity=".25" stroke-width="3">
<line x1="150" y1="496" x2="150" y2="616"/><line x1="300" y1="496" x2="300" y2="616"/><line x1="450" y1="496" x2="450" y2="616"/><line x1="600" y1="496" x2="600" y2="616"/><line x1="750" y1="496" x2="750" y2="616"/><line x1="900" y1="496" x2="900" y2="616"/><line x1="1050" y1="496" x2="1050" y2="616"/><line x1="1200" y1="496" x2="1200" y2="616"/>
</g>
<rect x="40" y="530" width="70" height="8" rx="4" fill="#FFFDF7" opacity=".85"/><rect x="190" y="530" width="70" height="8" rx="4" fill="#FFFDF7" opacity=".85"/><rect x="340" y="530" width="70" height="8" rx="4" fill="#FFFDF7" opacity=".85"/><rect x="490" y="530" width="70" height="8" rx="4" fill="#FFFDF7" opacity=".85"/><rect x="640" y="530" width="70" height="8" rx="4" fill="#FFFDF7" opacity=".85"/><rect x="790" y="530" width="70" height="8" rx="4" fill="#FFFDF7" opacity=".85"/><rect x="940" y="530" width="70" height="8" rx="4" fill="#FFFDF7" opacity=".85"/><rect x="1090" y="530" width="70" height="8" rx="4" fill="#FFFDF7" opacity=".85"/>
<!-- sink -->
<rect x="120" y="440" width="170" height="34" rx="8" fill="#E4E7DC"/>
<path d="M205 440 L205 396 Q205 380 225 380 L250 380" stroke="#55584C" stroke-width="10" fill="none" stroke-linecap="round"/>
<!-- hob -->
<rect x="540" y="452" width="160" height="22" rx="6" fill="#55584C"/>
<circle cx="580" cy="463" r="7" fill="#9C8253"/><circle cx="660" cy="463" r="7" fill="#9C8253"/>
<!-- island -->
<rect x="380" y="640" width="440" height="24" rx="6" fill="#55584C"/>
<rect x="400" y="664" width="400" height="136" fill="#EFEADD"/>
<circle cx="470" cy="624" r="20" fill="#9CAE8E"/>
<rect x="640" y="600" width="60" height="42" rx="6" fill="#9C8253" opacity=".8"/>
</svg>