<svg xmlns="http://www.w3.org/2000/svg" viewBox="0 0 1200 800" width="1200" height="800" role="img">
<defs>
<linearGradient id="sky1" x1="0" y1="0" x2="0" y2="1"><stop offset="0" stop-color="#E8DFD2"/><stop offset="1" stop-color="#FFFDF7"/></linearGradient>
<linearGradient id="wl1" x1="0" y1="0" x2="0" y2="1"><stop offset="0" stop-color="#FFFDF7"/><stop offset="1" stop-color="#F3E8D7"/></linearGradient>
<linearGradient id="fl1" x1="0" y1="0" x2="0" y2="1"><stop offset="0" stop-color="#E0CDAF"/><stop offset="1" stop-color="#CBB392"/></linearGradient>
<linearGradient id="gl1" x1="0" y1="0" x2="1" y2="1"><stop offset="0" stop-color="#DCE6E4"/><stop offset="1" stop-color="#FFFDF7"/></linearGradient>
</defs>
<rect width="1200" height="800" fill="url(#sky1)"/>
<rect y="440" width="1200" height="360" fill="#F3E8D7"/>
<!-- garage block -->
<rect x="0" y="120" width="1200" height="330" fill="url(#wl1)"/>
<path d="M-20 130 L620 40 L1220 130 Z" fill="#7D6F5F"/>
<rect x="140" y="200" width="360" height="250" rx="8" fill="#5F5143"/>
<g fill="#ffffff" opacity=".12">
<rect x="150" y="212" width="340" height="36" rx="4"/><rect x="150" y="260" width="340" height="36" rx="4"/><rect x="150" y="308" width="340" height="36" rx="4"/><rect x="150" y="356" width="340" height="36" rx="4"/><rect x="150" y="404" width="340" height="36" rx="4"/>
</g>
<rect x="700" y="200" width="360" height="250" rx="8" fill="#C8AE8B"/>
<g fill="#ffffff" opacity=".15">
<rect x="710" y="212" width="340" height="36" rx="4"/><rect x="710" y="260" width="340" height="36" rx="4"/><rect x="710" y="308" width="340" height="36" rx="4"/><rect x="710" y="356" width="340" height="36" rx="4"/><rect x="710" y="404" width="340" height="36" rx="4"/>
</g>
<!-- tarmac + bays -->
<rect y="500" width="1200" height="300" fill="#5F5143" opacity=".85"/>
<g stroke="#ffffff" stroke-opacity=".65" stroke-width="7">
<line x1="120" y1="800" x2="230" y2="540"/><line x1="470" y1="800" x2="470" y2="540"/><line x1="820" y1="800" x2="710" y2="540"/>
</g>
<!-- car -->
<path d="M240 700 L270 630 Q280 606 310 606 L470 606 Q500 606 516 630 L556 690 L560 730 Q560 746 542 746 L258 746 Q240 746 240 730 Z" fill="#A8794C"/>
<path d="M296 632 L458 632 L492 686 L272 686 Z" fill="#DCE6E4"/>
<circle cx="310" cy="746" r="34" fill="#4A423A"/><circle cx="310" cy="746" r="14" fill="#C9BBA6"/>
<circle cx="496" cy="746" r="34" fill="#4A423A"/><circle cx="496" cy="746" r="14" fill="#C9BBA6"/>
<!-- EV charger -->
<rect x="1060" y="520" width="52" height="150" rx="10" fill="#7E9169"/>
<rect x="1072" y="540" width="28" height="34" rx="5" fill="#FFFDF7"/>
</svg>